<?xml version="1.0" encoding="UTF-8"?>
<svg width="12px" height="13px" viewBox="0 0 12 13" version="1.1" xmlns="http://www.w3.org/2000/svg" xmlns:xlink="http://www.w3.org/1999/xlink">
    <!-- Generator: Sketch 55.1 (78136) - https://sketchapp.com -->
    <title>Path</title>
    <desc>Created with Sketch.</desc>
    <g id="Page-1" stroke="none" stroke-width="1" fill="none" fill-rule="evenodd">
        <g id="noun_The-Statue-of-Liberty_2322253" transform="translate(0.000000, -1.000000)" fill="#FFFFFF" fill-rule="nonzero">
            <g id="Group" transform="translate(0.000000, 0.700020)">
                <path d="M9.723,10.72825 C9.63723925,10.2046663 9.4299637,9.70846882 9.1178,9.27946 C8.90950257,8.99318747 8.57683359,8.82382737 8.2228,8.82382 L6.3125,8.82382 C6.10898357,8.82381681 5.90797377,8.77891654 5.7238,8.69232 C5.17208279,8.43290633 4.6684499,8.0816415 4.2344,7.65352 C4.08038314,7.36845619 3.93136039,7.08072225 3.7874,6.79045 C3.79331819,6.79358298 3.79975584,6.79561592 3.8064,6.79645 L5.2146,6.99034 C5.35139082,7.52425871 5.67263922,7.99257859 6.1215,8.31243 C6.36175685,8.48362414 6.68414315,8.48362414 6.9244,8.31243 C7.37378419,7.99222954 7.69525299,7.52323016 7.8318,6.9886 L9.2273,6.79645 C9.25468498,6.79267366 9.27508354,6.76926913 9.27508354,6.741625 C9.27508354,6.71398087 9.25468498,6.69057634 9.2273,6.6868 L7.9025,6.50439 C7.90361297,6.46277744 7.90361297,6.42114256 7.9025,6.37953 C7.90176333,6.32540484 7.89573463,6.27148148 7.8845,6.21853 L8.8907,5.43695 C8.91278841,5.42003683 8.91888857,5.38935527 8.90494974,5.3652791 C8.8910109,5.34120293 8.86136581,5.33121599 8.8357,5.34195 L7.6783,5.81332 C7.61055088,5.72886575 7.53376017,5.65208174 7.4493,5.58434 L7.9207,4.427 C7.93116234,4.40137828 7.9210898,4.37196693 7.89711684,4.35813832 C7.87314388,4.34430971 7.84264121,4.35031556 7.8257,4.3722 L7.0592,5.35909 C6.95830347,5.31982657 6.85341209,5.29172588 6.7464,5.27529 L6.5759,4.03731 C6.57220596,4.00984272 6.54876457,3.98934289 6.52105,3.98934289 C6.49333543,3.98934289 6.46989404,4.00984272 6.4662,4.03731 L6.2958,5.27529 C6.18878791,5.29172588 6.08389653,5.31982657 5.983,5.35909 L5.2164,4.3722 C5.19945879,4.35031556 5.16895612,4.34430971 5.14498316,4.35813832 C5.1210102,4.37196693 5.11093766,4.40137828 5.1214,4.427 L5.5928,5.58434 C5.50833983,5.65208174 5.43154912,5.72886575 5.3638,5.81332 L4.2065,5.34195 C4.18083419,5.33121599 4.1511891,5.34120293 4.13725026,5.3652791 C4.12331143,5.38935527 4.12941159,5.42003683 4.1515,5.43695 L5.1577,6.21853 C5.14646537,6.27148148 5.14043667,6.32540484 5.1397,6.37953 C5.13861661,6.42058619 5.13861661,6.46166381 5.1397,6.50272 L3.8028,6.6868 C3.77848525,6.69024468 3.75934833,6.70930016 3.7558,6.7336 C3.42538532,6.06357561 3.12210592,5.38050808 2.8467,4.68606 L2.694,3.80301 L3.0238,3.80301 C3.1001908,3.80297714 3.16210027,3.7410408 3.1621,3.66465 L3.1621,3.18488 C3.16210027,3.1084892 3.1001908,3.04655286 3.0238,3.04652 L2.5518,3.04652 C2.71891495,2.90399792 2.84570414,2.7201174 2.9195,2.51325 C3.02937037,2.17655733 2.94767944,1.80675747 2.7062,1.54768 C2.70618824,1.71631214 2.63068187,1.87608258 2.5004,1.98315 C2.47015328,2.00789438 2.42674438,2.00819324 2.39615982,1.98386768 C2.36557526,1.95954212 2.35609735,1.9171795 2.3734,1.88214 C2.43673308,1.7547633 2.46470678,1.61271908 2.4544,1.47084 C2.39289406,1.20786196 2.23324373,0.978316778 2.0081,0.82915 C1.96677754,1.09068677 1.82934587,1.32739088 1.6227,1.49294 C1.43036265,1.66537745 1.27235533,1.87261913 1.157,2.10375 C1.02126371,2.43503334 1.1150278,2.8160591 1.389,3.04652 L1.0346,3.04652 C0.958209205,3.04655286 0.8963,3.1084892 0.8963,3.18488 L0.8963,3.66465 C0.8963,3.7410408 0.958209205,3.80297714 1.0346,3.80301 L1.3681,3.80301 C1.25676356,4.04186598 1.30407446,4.32462611 1.4871,4.51423 C1.6242744,4.66690612 1.8032338,4.77597504 2.0018,4.82792 C2.1155954,6.12172551 2.436694,7.3888157 2.9528,8.58067 C2.38029114,9.08198383 2.14919045,9.86907068 2.3598,10.60032 C2.49124328,11.0523276 2.89060741,11.3744137 3.3602,11.40714 C3.37592773,11.8649536 3.64632505,12.2755406 4.0607,12.47082 L11.1117,12.47082 L11.787,11.22098 C11.8044566,11.1886857 11.8083634,11.1507777 11.7978603,11.1156018 C11.7873572,11.0804259 11.7633054,11.0508661 11.731,11.03343 L10.2546,10.23733 C10.1873834,10.2010792 10.1035069,10.2261437 10.0672,10.29333 L9.8231,10.74516 C9.81183714,10.765986 9.78857397,10.7773407 9.76522642,10.773408 C9.74187886,10.7694753 9.72361902,10.7511264 9.7198,10.72776 L9.723,10.72825 Z" id="Path"></path>
            </g>
        </g>
    </g>
</svg>